<?xml version="1.0" encoding="UTF-8"?>
<svg version="1.1" viewBox="0 0 30 23" xmlns="http://www.w3.org/2000/svg">
<g fill="none" fill-rule="evenodd">
<g transform="translate(-384 -828)" fill="#f00" fill-rule="nonzero">
<path d="m411.62 828h-25.23c-0.63254 0-1.2392 0.25858-1.6864 0.71887-0.44727 0.46028-0.69855 1.0846-0.69855 1.7355v18.091c0 1.3555 1.0678 2.4544 2.385 2.4544h25.23c1.3172 0 2.385-1.0989 2.385-2.4544v-18.091c0-1.3555-1.0678-2.4544-2.385-2.4544zm-22.62 18.614c0 0.2134-0.17056 0.3864-0.38095 0.3864h-3.2328c-0.21039 0-0.38095-0.173-0.38095-0.3864v-2.2272c0-0.2134 0.17056-0.3864 0.38095-0.3864h3.2381c0.21039 0 0.38095 0.173 0.38095 0.3864l-0.005291 2.2272zm0-6c0 0.2134-0.17056 0.3864-0.38095 0.3864h-3.2328c-0.21039 0-0.38095-0.173-0.38095-0.3864v-2.2272c0-0.2134 0.17056-0.3864 0.38095-0.3864h3.2381c0.21039 0 0.38095 0.173 0.38095 0.3864l-0.005291 2.2272zm0-6.0007c0 0.21379-0.17056 0.3871-0.38095 0.3871h-3.2328c-0.21039 0-0.38095-0.17331-0.38095-0.3871v-2.2366c0.005731-0.20958 0.17462-0.37642 0.38095-0.37634h3.2381c0.21039 0 0.38095 0.17331 0.38095 0.3871l-0.005291 2.2258zm13.575 6.2062l-6.2324 4.0439c-0.27276 0.17783-0.61299 0.18284-0.89014 0.013119-0.27714-0.16973-0.44816-0.48784-0.44743-0.83226v-8.0877c-7.28e-4 -0.34443 0.17029-0.66254 0.44743-0.83226 0.27714-0.16973 0.61737-0.16471 0.89014 0.013119l6.2324 4.0439c0.2667 0.17213 0.43005 0.48326 0.43005 0.81914s-0.16334 0.64701-0.43005 0.81914zm10.43 5.7945c0 0.2134-0.17078 0.3864-0.38146 0.3864h-3.2371c-0.21067 0-0.38146-0.173-0.38146-0.3864v-2.2272c0-0.2134 0.17078-0.3864 0.38146-0.3864h3.2371c0.21067 0 0.38146 0.173 0.38146 0.3864v2.2272zm0-6c0 0.2134-0.17078 0.3864-0.38146 0.3864h-3.2371c-0.21067 0-0.38146-0.173-0.38146-0.3864v-2.2272c0-0.2134 0.17078-0.3864 0.38146-0.3864h3.2371c0.21067 0 0.38146 0.173 0.38146 0.3864v2.2272zm0-5.9993c0 0.21302-0.17078 0.38571-0.38146 0.38571h-3.2371c-0.21067 0-0.38146-0.17269-0.38146-0.38571v-2.2286c0-0.21302 0.17078-0.38571 0.38146-0.38571h3.2371c0.21067 0 0.38146 0.17269 0.38146 0.38571v2.2286z"/>
</g>
</g>
</svg>
