<?xml version="1.0" encoding="UTF-8"?>
<svg version="1.1" viewBox="0 0 18 27" xmlns="http://www.w3.org/2000/svg">
<g fill="none" fill-rule="evenodd">
<g transform="translate(-78 -824)" fill="#f00" fill-rule="nonzero">
<g transform="translate(78 824)">
<path d="m8.7752 5.3984c1.4907 0 2.6992-1.2085 2.6992-2.6992s-1.2085-2.6992-2.6992-2.6992-2.6992 1.2085-2.6992 2.6992 1.2085 2.6992 2.6992 2.6992z"/>
<path d="m5.1296 14.974c-0.60747 0.22484-1.2877 0.12344-1.8032-0.2688-0.35594-0.27155-0.69448-0.5652-1.0136-0.8792l-2.3128 7.4536s1.1872 0.1344 2.9512 0.2968l2.1784-6.6024z"/>
<path d="m11.581 14.756c-0.017134-0.053539-0.03771-0.10591-0.0616-0.1568 0.364-2.016 0.7672-4.0544 1.204-6.0816 0.7672 0.4872 1.232 1.0304 1.2712 1.5064 0.056 0.5992-0.5208 1.3888-1.624 2.24-0.41302 0.31075-0.58028 0.8513-0.41492 1.341 0.16536 0.48971 0.62606 0.81822 1.1429 0.81499 0.26321 4.374e-4 0.51917-0.086195 0.728-0.2464 1.8312-1.4 2.6936-2.8616 2.5648-4.3512-0.11338-0.96988-0.58466-1.8625-1.3216-2.5032-0.54527-0.50088-1.1579-0.9231-1.82-1.2544-0.10743-0.053543-0.22277-0.089467-0.3416-0.1064-0.11646-0.042465-0.24016-0.061496-0.364-0.056h-7.5376c-0.12603-0.0037141-0.25158 0.017211-0.3696 0.0616-0.11156 0.017538-0.21943 0.053494-0.3192 0.1064-0.66306 0.32744-1.2759 0.74796-1.82 1.2488-0.73486 0.64158-1.2041 1.5341-1.316 2.5032-0.1344 1.4896 0.728 2.9512 2.5592 4.3512 0.52662 0.39888 1.2763 0.29893 1.68-0.224 0.39764-0.52807 0.29515-1.278-0.2296-1.68-1.12-0.84-1.68-1.6296-1.624-2.24 0.0392-0.4704 0.4984-1.0136 1.26-1.5008 0.4256 1.9936 0.8232 3.9984 1.1872 5.9808-0.027626 0.0564-0.051934 0.11437-0.0728 0.1736l-3.3264 10.08c-0.12907 0.38986-0.097683 0.81505 0.087232 1.1817s0.50815 0.64469 0.89837 0.77267c0.15686 0.053244 0.32155 0.079746 0.4872 0.0784 0.66316 0.0048058 1.2566-0.41103 1.4784-1.036l3.1864-9.688 3.2144 9.744c0.20863 0.63625 0.80322 1.0658 1.4728 1.064 0.16542-0.0014291 0.32968-0.027861 0.4872-0.078406 0.39021-0.12798 0.71345-0.40599 0.89837-0.77267 0.18492-0.36668 0.2163-0.79187 0.087232-1.1817l-3.332-10.091zm-1.5008-3.2816l-1.2936-0.6664-1.2712 0.6664 0.2408-1.3944-1.036-1.0192 1.4168-0.2072 0.6384-1.288 0.6328 1.288 1.4168 0.2072-1.0136 1.0192 0.2688 1.3944z"/>
<path d="m7.5432 21.918c0.81387 0.0448 1.6315 0.0784 2.4528 0.1008l-1.2432-3.7688-1.2096 3.668z"/>
<path d="m14.241 14.706c-0.32179 0.2464-0.71473 0.38197-1.12 0.3864-0.25175 4.438e-4 -0.5011-0.049044-0.7336-0.1456l2.2848 7.0056c1.1136-0.03222 2.213-0.25967 3.248-0.672l-2.52-7.5992c-0.36231 0.36791-0.74964 0.71033-1.1592 1.0248z"/>
</g>
</g>
</g>
</svg>
